<?xml version="1.0" standalone="no"?>
<!DOCTYPE svg PUBLIC "-//W3C//DTD SVG 20010904//EN"
 "http://www.w3.org/TR/2001/REC-SVG-20010904/DTD/svg10.dtd">
<svg version="1.0" xmlns="http://www.w3.org/2000/svg"
 width="1577.000000pt" height="1577.000000pt" viewBox="0 0 1577.000000 1577.000000"
 preserveAspectRatio="xMidYMid meet">

<g transform="translate(0.000000,1577.000000) scale(0.100000,-0.100000)"
fill="#000000" stroke="none">
<path d="M7624 15761 c7 -11 521 -9 532 2 4 4 -115 7 -265 7 -156 0 -270 -4
-267 -9z"/>
<path d="M7410 15750 c0 -13 70 -13 90 0 11 7 0 10 -37 10 -29 0 -53 -4 -53
-10z"/>
<path d="M8260 15750 c8 -5 31 -10 50 -10 19 0 42 5 50 10 11 7 -4 10 -50 10
-46 0 -61 -3 -50 -10z"/>
<path d="M7265 15740 c8 -13 45 -13 65 0 11 7 3 10 -28 10 -26 0 -41 -4 -37
-10z"/>
<path d="M8437 15738 c16 -8 32 -8 55 0 32 9 31 10 -22 10 -46 1 -52 -1 -33
-10z"/>
<path d="M7150 15730 c0 -13 30 -13 50 0 11 7 7 10 -17 10 -18 0 -33 -4 -33
-10z"/>
<path d="M8568 15728 c16 -8 28 -8 45 0 19 9 17 11 -23 11 -40 0 -42 -2 -22
-11z"/>
<path d="M7048 15718 c8 -8 17 -8 34 0 22 10 21 11 -11 11 -27 1 -32 -2 -23
-11z"/>
<path d="M8674 15719 c12 -8 25 -8 40 -1 18 9 16 11 -19 11 -33 0 -37 -1 -21
-10z"/>
<path d="M6960 15710 c0 -5 6 -10 14 -10 8 0 18 5 21 10 3 6 -3 10 -14 10 -12
0 -21 -4 -21 -10z"/>
<path d="M8764 15709 c12 -8 25 -8 40 -1 18 9 16 11 -19 11 -33 0 -37 -1 -21
-10z"/>
<path d="M6877 15699 c8 -8 16 -8 30 0 16 9 14 10 -11 11 -22 0 -27 -3 -19
-11z"/>
<path d="M8852 15700 c10 -6 25 -7 40 -1 20 9 18 10 -17 10 -31 0 -36 -2 -23
-9z"/>
<path d="M6800 15690 c0 -13 11 -13 30 0 12 8 11 10 -7 10 -13 0 -23 -4 -23
-10z"/>
<path d="M8933 15689 c11 -7 23 -7 35 0 14 9 11 10 -18 10 -29 0 -32 -1 -17
-10z"/>
<path d="M6730 15680 c0 -13 11 -13 30 0 12 8 11 10 -7 10 -13 0 -23 -4 -23
-10z"/>
<path d="M9003 15679 c11 -7 23 -7 35 0 14 9 11 10 -18 10 -29 0 -32 -1 -17
-10z"/>
<path d="M6660 15670 c0 -13 11 -13 30 0 12 8 11 10 -7 10 -13 0 -23 -4 -23
-10z"/>
<path d="M9060 15676 c0 -10 28 -13 41 -5 10 6 7 9 -13 9 -16 0 -28 -2 -28 -4z"/>
<path d="M6600 15660 c0 -5 7 -7 15 -4 8 4 15 8 15 10 0 2 -7 4 -15 4 -8 0
-15 -4 -15 -10z"/>
<path d="M9138 15658 c9 -9 15 -9 24 0 9 9 7 12 -12 12 -19 0 -21 -3 -12 -12z"/>
<path d="M6540 15650 c0 -5 7 -7 15 -4 8 4 15 8 15 10 0 2 -7 4 -15 4 -8 0
-15 -4 -15 -10z"/>
<path d="M9190 15656 c0 -9 30 -14 35 -6 4 6 -3 10 -14 10 -12 0 -21 -2 -21
-4z"/>
<path d="M6480 15640 c0 -5 7 -7 15 -4 8 4 15 8 15 10 0 2 -7 4 -15 4 -8 0
-15 -4 -15 -10z"/>
<path d="M9255 15640 c3 -5 12 -7 20 -3 21 7 19 13 -6 13 -11 0 -18 -4 -14
-10z"/>
<path d="M6430 15630 c0 -5 7 -7 15 -4 8 4 15 8 15 10 0 2 -7 4 -15 4 -8 0
-15 -4 -15 -10z"/>
<path d="M9300 15636 c0 -10 28 -13 41 -5 10 6 7 9 -13 9 -16 0 -28 -2 -28 -4z"/>
<path d="M6380 15619 c0 -5 5 -7 10 -4 6 3 10 8 10 11 0 2 -4 4 -10 4 -5 0
-10 -5 -10 -11z"/>
<path d="M9365 15620 c3 -5 12 -7 20 -3 21 7 19 13 -6 13 -11 0 -18 -4 -14
-10z"/>
<path d="M6330 15609 c0 -5 5 -7 10 -4 6 3 10 8 10 11 0 2 -4 4 -10 4 -5 0
-10 -5 -10 -11z"/>
<path d="M9415 15610 c3 -5 12 -7 20 -3 21 7 19 13 -6 13 -11 0 -18 -4 -14
-10z"/>
<path d="M6280 15599 c0 -5 5 -7 10 -4 6 3 10 8 10 11 0 2 -4 4 -10 4 -5 0
-10 -5 -10 -11z"/>
<path d="M9465 15600 c3 -5 12 -7 20 -3 21 7 19 13 -6 13 -11 0 -18 -4 -14
-10z"/>
<path d="M6230 15589 c0 -5 5 -7 10 -4 6 3 10 8 10 11 0 2 -4 4 -10 4 -5 0
-10 -5 -10 -11z"/>
<path d="M9515 15590 c4 -6 11 -8 16 -5 14 9 11 15 -7 15 -8 0 -12 -5 -9 -10z"/>
<path d="M9555 15580 c3 -5 12 -7 20 -3 21 7 19 13 -6 13 -11 0 -18 -4 -14
-10z"/>
<path d="M6140 15569 c0 -5 5 -7 10 -4 6 3 10 8 10 11 0 2 -4 4 -10 4 -5 0
-10 -5 -10 -11z"/>
<path d="M9605 15570 c3 -5 12 -7 19 -4 8 3 17 1 20 -5 4 -6 14 -7 24 -4 14 6
13 8 -8 14 -37 10 -62 10 -55 -1z"/>
<path d="M9695 15550 c4 -6 11 -8 16 -5 14 9 11 15 -7 15 -8 0 -12 -5 -9 -10z"/>
<path d="M9735 15540 c4 -6 11 -8 16 -5 14 9 11 15 -7 15 -8 0 -12 -5 -9 -10z"/>
<path d="M5970 15529 c0 -5 5 -7 10 -4 6 3 10 8 10 11 0 2 -4 4 -10 4 -5 0
-10 -5 -10 -11z"/>
<path d="M9775 15530 c4 -6 11 -8 16 -5 14 9 11 15 -7 15 -8 0 -12 -5 -9 -10z"/>
<path d="M5930 15519 c0 -5 5 -7 10 -4 6 3 10 8 10 11 0 2 -4 4 -10 4 -5 0
-10 -5 -10 -11z"/>
<path d="M9815 15520 c4 -6 11 -8 16 -5 14 9 11 15 -7 15 -8 0 -12 -5 -9 -10z"/>
<path d="M5890 15509 c0 -5 5 -7 10 -4 6 3 10 8 10 11 0 2 -4 4 -10 4 -5 0
-10 -5 -10 -11z"/>
<path d="M9855 15510 c4 -6 11 -8 16 -5 14 9 11 15 -7 15 -8 0 -12 -5 -9 -10z"/>
<path d="M9898 15503 c7 -3 16 -2 19 1 4 3 -2 6 -13 5 -11 0 -14 -3 -6 -6z"/>
<path d="M9930 15489 c0 -5 5 -7 10 -4 6 4 17 2 25 -5 8 -6 16 -7 19 -2 3 6
-4 12 -17 16 -31 8 -37 7 -37 -5z"/>
<path d="M5780 15479 c0 -5 5 -7 10 -4 6 3 10 8 10 11 0 2 -4 4 -10 4 -5 0
-10 -5 -10 -11z"/>
<path d="M5740 15470 c-9 -6 -10 -10 -3 -10 6 0 15 5 18 10 8 12 4 12 -15 0z"/>
<path d="M10020 15466 c14 -7 29 -10 34 -8 11 6 -20 20 -44 21 -8 0 -4 -5 10
-13z"/>
<path d="M5670 15450 c-9 -6 -10 -10 -3 -10 6 0 15 5 18 10 8 12 4 12 -15 0z"/>
<path d="M10090 15446 c14 -7 29 -10 34 -8 11 6 -20 20 -44 21 -8 0 -4 -5 10
-13z"/>
<path d="M10167 15427 c17 -7 35 -15 39 -19 10 -11 24 -10 24 0 0 5 -17 14
-39 20 -49 15 -66 14 -24 -1z"/>
<path d="M5570 15420 c-9 -6 -10 -10 -3 -10 6 0 15 5 18 10 8 12 4 12 -15 0z"/>
<path d="M10394 15354 c38 -13 71 -22 73 -20 5 5 -116 46 -131 45 -6 0 20 -11
58 -25z"/>
<path d="M10514 15313 c9 -9 89 -33 94 -29 3 3 -85 36 -96 36 -3 0 -2 -3 2 -7z"/>
<path d="M10625 15272 c6 -5 24 -12 40 -16 34 -7 15 7 -25 19 -16 5 -22 4 -15
-3z"/>
<path d="M10705 15240 c3 -5 15 -10 25 -10 10 0 22 -4 25 -10 3 -5 13 -10 21
-10 8 0 35 -10 59 -21 25 -12 48 -19 51 -17 4 5 -167 78 -182 78 -3 0 -2 -4 1
-10z"/>
<path d="M10908 15158 c6 -6 22 -13 34 -15 12 -2 28 -9 36 -15 8 -7 23 -13 34
-15 11 -2 31 -12 45 -23 14 -11 30 -17 35 -14 13 8 11 10 -91 54 -98 43 -112
47 -93 28z"/>
<path d="M4830 15149 c0 -5 5 -7 10 -4 6 3 10 8 10 11 0 2 -4 4 -10 4 -5 0
-10 -5 -10 -11z"/>
<path d="M7730 15137 c-3 -2 -97 -8 -210 -12 -113 -4 -225 -9 -250 -12 -25 -2
-74 -6 -110 -9 -64 -5 -108 -10 -185 -19 -116 -15 -142 -19 -212 -30 -18 -3
-48 -8 -65 -11 -18 -3 -44 -7 -58 -10 -14 -2 -38 -7 -55 -9 -29 -5 -58 -10
-110 -20 -14 -3 -37 -8 -52 -11 -16 -3 -35 -7 -43 -8 -8 -2 -23 -6 -32 -10 -9
-4 -21 -5 -27 -2 -5 4 -13 1 -16 -5 -4 -5 -13 -8 -21 -5 -7 3 -16 0 -20 -5 -3
-6 -15 -9 -25 -6 -10 3 -22 1 -25 -5 -3 -5 -12 -7 -20 -4 -7 3 -16 1 -20 -5
-3 -6 -12 -8 -20 -5 -7 3 -16 1 -20 -5 -3 -6 -12 -8 -20 -5 -7 3 -16 1 -20 -5
-3 -6 -12 -8 -20 -5 -7 3 -16 1 -20 -5 -3 -6 -12 -8 -20 -5 -7 3 -16 1 -20 -5
-3 -6 -12 -8 -19 -5 -8 3 -15 1 -17 -4 -2 -5 -16 -11 -33 -13 -16 -3 -43 -9
-58 -16 -15 -6 -31 -10 -35 -9 -4 1 -20 -4 -37 -11 -16 -7 -46 -15 -65 -18
-19 -3 -39 -9 -45 -13 -5 -4 -68 -26 -140 -49 -71 -24 -139 -47 -150 -51 -11
-5 -47 -19 -80 -31 -33 -11 -73 -27 -90 -34 -78 -34 -108 -44 -115 -40 -5 3
-11 1 -15 -5 -9 -14 -96 -51 -106 -44 -5 3 -9 1 -9 -4 0 -12 -49 -34 -61 -27
-5 4 -9 1 -9 -5 0 -6 -4 -9 -9 -6 -4 3 -23 -6 -42 -20 -18 -13 -39 -22 -46
-20 -7 3 -13 0 -13 -6 0 -6 -3 -9 -6 -5 -7 7 -55 -16 -96 -46 -15 -11 -31 -16
-39 -12 -8 6 -10 4 -4 -5 6 -10 4 -12 -9 -7 -11 5 -15 3 -10 -5 5 -8 2 -9 -10
-5 -11 5 -15 3 -10 -5 5 -8 2 -9 -10 -5 -11 5 -15 3 -10 -5 5 -8 2 -9 -10 -5
-10 4 -15 3 -11 -3 3 -5 -7 -12 -22 -16 -39 -10 -100 -41 -123 -64 -10 -10
-37 -24 -58 -30 -22 -5 -43 -17 -46 -25 -3 -8 -12 -15 -20 -15 -24 0 -66 -22
-60 -31 3 -5 -4 -9 -16 -9 -11 0 -28 -9 -37 -20 -10 -11 -25 -20 -34 -20 -9 0
-19 -7 -23 -15 -3 -8 -14 -15 -25 -15 -10 0 -21 -7 -25 -15 -3 -8 -15 -15 -26
-15 -11 0 -20 -4 -20 -10 0 -5 -6 -10 -14 -10 -8 0 -16 -7 -20 -15 -3 -8 -15
-15 -26 -15 -12 0 -18 -4 -15 -10 3 -5 -3 -10 -14 -10 -12 0 -21 -4 -21 -10 0
-5 -7 -10 -15 -10 -8 0 -15 -4 -15 -10 0 -5 -7 -10 -15 -10 -8 0 -15 -4 -15
-10 0 -5 -7 -10 -15 -10 -8 0 -15 -4 -15 -10 0 -5 -7 -10 -15 -10 -8 0 -15 -4
-15 -10 0 -5 -7 -10 -15 -10 -8 0 -15 -4 -15 -10 0 -5 -7 -10 -15 -10 -8 0
-15 -4 -15 -10 0 -5 -7 -10 -15 -10 -8 0 -15 -4 -15 -10 0 -5 -7 -10 -16 -10
-8 0 -12 -4 -9 -10 3 -5 -6 -12 -20 -16 -14 -3 -25 -10 -25 -15 0 -5 -7 -9
-16 -9 -8 0 -12 -4 -9 -10 3 -5 -5 -12 -19 -16 -13 -3 -27 -12 -30 -20 -3 -8
-12 -14 -20 -14 -7 0 -16 -7 -20 -15 -3 -8 -12 -15 -20 -15 -7 0 -16 -7 -20
-15 -3 -8 -12 -15 -20 -15 -7 0 -16 -7 -20 -15 -3 -8 -12 -15 -20 -15 -7 0
-16 -7 -20 -15 -3 -8 -13 -15 -21 -15 -9 0 -14 -4 -11 -9 4 -5 -7 -15 -23 -22
-16 -7 -28 -16 -25 -20 2 -4 -11 -14 -29 -23 -17 -8 -28 -16 -23 -16 10 0 -39
-40 -49 -40 -4 0 -16 -11 -27 -25 -11 -14 -27 -25 -35 -25 -9 0 -14 -3 -10 -6
8 -8 -47 -54 -64 -54 -7 0 -10 -3 -6 -6 7 -7 -70 -74 -86 -74 -6 0 -8 -3 -4
-6 3 -4 -21 -29 -54 -58 -92 -79 -421 -414 -545 -555 -22 -24 -54 -60 -72 -79
-17 -18 -32 -38 -32 -42 0 -5 -11 -17 -25 -28 -14 -11 -25 -25 -25 -31 0 -6
-9 -16 -20 -23 -11 -7 -20 -18 -20 -25 0 -7 -9 -18 -20 -25 -11 -7 -20 -18
-20 -25 0 -7 -9 -18 -20 -25 -11 -7 -20 -18 -20 -25 0 -6 -9 -18 -20 -26 -11
-8 -17 -16 -14 -20 3 -3 -3 -12 -15 -19 -12 -7 -21 -19 -21 -26 0 -7 -7 -15
-15 -18 -8 -4 -15 -13 -15 -20 0 -8 -7 -17 -15 -20 -8 -4 -15 -13 -15 -20 0
-8 -7 -17 -15 -20 -8 -4 -12 -10 -9 -15 3 -5 -2 -12 -10 -15 -9 -3 -16 -13
-16 -20 0 -8 -7 -17 -15 -20 -8 -4 -12 -10 -9 -15 3 -5 -2 -12 -10 -15 -9 -3
-16 -13 -16 -20 0 -8 -7 -17 -15 -20 -8 -4 -12 -10 -9 -15 3 -5 -2 -12 -10
-15 -9 -3 -13 -10 -10 -15 3 -5 -2 -12 -10 -15 -9 -3 -13 -10 -10 -15 3 -5 -2
-12 -10 -15 -9 -3 -13 -10 -10 -15 3 -5 -2 -12 -10 -15 -9 -3 -13 -10 -10 -15
3 -5 -2 -12 -10 -15 -9 -3 -13 -10 -10 -15 3 -5 -2 -12 -10 -15 -9 -3 -13 -10
-10 -15 3 -5 -2 -12 -10 -15 -9 -3 -13 -10 -10 -15 3 -5 -2 -12 -10 -15 -9 -3
-13 -10 -10 -15 3 -5 0 -9 -6 -9 -6 0 -8 -5 -5 -10 3 -6 -1 -13 -9 -16 -9 -3
-13 -10 -10 -15 3 -5 -2 -12 -10 -15 -9 -3 -13 -10 -10 -15 3 -5 0 -9 -6 -9
-6 0 -8 -5 -5 -10 3 -6 -1 -13 -9 -16 -9 -3 -13 -10 -10 -15 3 -5 0 -9 -6 -9
-6 0 -8 -5 -5 -10 3 -6 -1 -13 -9 -16 -9 -3 -13 -10 -10 -15 3 -5 0 -9 -6 -9
-6 0 -8 -5 -5 -10 3 -6 -1 -13 -9 -16 -9 -3 -13 -10 -10 -15 3 -5 0 -9 -6 -9
-6 0 -8 -5 -5 -10 3 -6 -1 -13 -9 -16 -9 -3 -13 -10 -10 -15 3 -5 0 -9 -6 -9
-6 0 -8 -4 -5 -10 3 -5 1 -10 -5 -10 -6 0 -8 -4 -5 -10 3 -5 1 -10 -5 -10 -6
0 -8 -5 -5 -10 3 -6 -1 -13 -9 -16 -9 -3 -13 -10 -10 -15 3 -5 0 -9 -6 -9 -6
0 -8 -4 -5 -10 3 -5 1 -10 -5 -10 -6 0 -8 -4 -5 -10 3 -5 1 -10 -5 -10 -6 0
-8 -5 -5 -10 3 -6 -1 -13 -9 -16 -9 -3 -13 -10 -10 -15 3 -5 0 -9 -6 -9 -6 0
-8 -4 -5 -10 3 -5 1 -10 -5 -10 -6 0 -8 -4 -5 -10 3 -5 1 -10 -5 -10 -6 0 -8
-4 -5 -10 3 -5 1 -10 -5 -10 -6 0 -8 -4 -5 -10 3 -5 1 -10 -5 -10 -6 0 -8 -4
-5 -10 3 -5 1 -10 -5 -10 -6 0 -8 -4 -5 -10 3 -5 1 -10 -5 -10 -6 0 -8 -4 -5
-10 3 -5 1 -10 -5 -10 -6 0 -8 -4 -5 -10 3 -5 1 -10 -5 -10 -6 0 -8 -4 -5 -10
3 -5 1 -10 -5 -10 -6 0 -8 -4 -5 -10 3 -5 1 -10 -5 -10 -6 0 -8 -4 -5 -10 3
-5 1 -10 -5 -10 -6 0 -8 -4 -5 -10 3 -5 1 -10 -5 -10 -6 0 -8 -4 -5 -10 3 -5
1 -10 -5 -10 -6 0 -8 -4 -5 -10 3 -5 1 -10 -5 -10 -6 0 -8 -4 -5 -10 3 -5 1
-10 -5 -10 -6 0 -8 -4 -5 -10 3 -5 1 -10 -5 -10 -6 0 -8 -4 -5 -10 3 -5 1 -10
-6 -10 -7 0 -10 -3 -6 -6 8 -8 -13 -64 -25 -64 -5 0 -6 -4 -3 -10 3 -5 1 -10
-6 -10 -7 0 -10 -3 -6 -6 8 -8 -13 -64 -25 -64 -5 0 -6 -4 -3 -10 3 -5 1 -10
-6 -10 -7 0 -10 -3 -6 -6 6 -6 -29 -105 -41 -114 -4 -3 -8 -12 -10 -20 -2 -8
-33 -94 -69 -190 -36 -96 -86 -238 -111 -315 -25 -77 -48 -142 -51 -145 -3 -3
-7 -18 -8 -34 -1 -16 -6 -32 -10 -35 -4 -3 -9 -19 -10 -35 -1 -16 -6 -32 -10
-35 -4 -3 -9 -19 -10 -36 -1 -16 -7 -31 -12 -33 -5 -2 -7 -12 -4 -22 3 -11 1
-20 -5 -20 -6 0 -8 -9 -5 -20 3 -11 1 -20 -5 -20 -6 0 -8 -9 -5 -20 3 -11 1
-20 -5 -20 -6 0 -8 -9 -5 -20 3 -11 1 -20 -5 -20 -6 0 -8 -9 -5 -20 3 -11 1
-20 -5 -20 -6 0 -8 -9 -5 -20 3 -11 1 -20 -3 -20 -5 0 -10 -19 -11 -42 -1 -23
-6 -44 -12 -46 -6 -2 -9 -8 -5 -13 3 -5 -6 -66 -20 -137 -90 -455 -125 -789
-133 -1287 -9 -578 30 -1026 133 -1543 19 -95 32 -177 29 -182 -4 -6 -1 -10 6
-10 6 0 9 -8 6 -20 -3 -11 -1 -20 5 -20 6 0 8 -9 5 -20 -3 -11 -1 -20 5 -20 6
0 8 -11 6 -25 -3 -14 -1 -25 5 -25 5 0 7 -9 4 -20 -3 -10 0 -21 6 -23 6 -2 10
-17 10 -35 0 -18 4 -32 9 -32 5 0 6 -9 3 -20 -4 -12 -2 -20 5 -20 7 0 10 -8 7
-20 -3 -10 -1 -20 4 -22 5 -2 11 -17 12 -33 1 -17 6 -33 11 -36 5 -4 9 -21 10
-38 0 -17 4 -31 7 -31 7 0 42 -114 42 -138 0 -9 3 -19 7 -22 11 -8 50 -132 44
-141 -3 -5 0 -9 5 -9 6 0 10 -3 9 -7 0 -5 7 -26 17 -48 9 -22 18 -50 19 -62 0
-13 5 -23 9 -23 5 0 6 -4 3 -9 -4 -5 -1 -11 5 -13 6 -2 12 -16 12 -31 1 -15 6
-27 10 -27 5 0 5 -4 2 -10 -3 -5 -1 -10 5 -10 7 0 10 -7 6 -15 -3 -8 -1 -15 5
-15 6 0 7 -4 4 -10 -3 -6 -1 -10 5 -10 7 0 10 -7 6 -15 -3 -8 -1 -15 5 -15 6
0 7 -4 4 -10 -3 -6 -1 -10 5 -10 7 0 10 -7 6 -15 -3 -8 -1 -15 5 -15 6 0 7 -4
4 -10 -3 -5 -1 -10 5 -10 7 0 10 -7 6 -15 -3 -8 -1 -15 5 -15 6 0 7 -5 4 -10
-3 -6 -1 -10 5 -10 6 0 8 -5 5 -10 -3 -5 -1 -10 5 -10 7 0 10 -7 6 -15 -3 -8
-1 -15 5 -15 6 0 7 -5 4 -10 -3 -6 -1 -10 5 -10 6 0 8 -5 5 -10 -3 -6 -1 -10
5 -10 7 0 10 -7 6 -15 -3 -8 -1 -15 5 -15 6 0 7 -4 4 -10 -3 -5 -1 -10 5 -10
6 0 8 -4 5 -10 -3 -5 -1 -10 5 -10 6 0 8 -4 5 -10 -3 -5 -1 -10 5 -10 7 0 10
-7 6 -15 -3 -8 -1 -15 5 -15 6 0 7 -4 4 -10 -3 -6 -1 -10 5 -10 6 0 8 -4 5
-10 -3 -5 -1 -10 5 -10 6 0 8 -4 5 -10 -3 -5 -1 -10 5 -10 6 0 8 -4 5 -10 -3
-5 -1 -10 5 -10 6 0 8 -4 5 -10 -3 -5 -1 -10 5 -10 6 0 8 -4 5 -10 -3 -5 -1
-10 5 -10 6 0 8 -4 5 -10 -3 -5 -1 -10 5 -10 7 0 10 -7 6 -15 -3 -8 -1 -15 5
-15 6 0 7 -4 4 -10 -3 -5 -1 -10 5 -10 6 0 8 -4 5 -10 -3 -5 -1 -10 5 -10 6 0
8 -4 5 -10 -3 -5 -1 -10 5 -10 6 0 8 -4 5 -10 -3 -5 -1 -10 5 -10 6 0 9 -4 6
-9 -3 -5 1 -12 10 -15 8 -3 12 -10 9 -16 -3 -5 -1 -10 5 -10 6 0 8 -4 5 -10
-3 -5 -1 -10 5 -10 6 0 8 -4 5 -10 -3 -5 -1 -10 5 -10 6 0 8 -4 5 -10 -3 -5
-1 -10 5 -10 6 0 8 -4 5 -10 -3 -5 -1 -10 5 -10 6 0 8 -5 5 -10 -3 -6 -1 -10
5 -10 6 0 8 -4 5 -10 -3 -5 -1 -10 5 -10 6 0 9 -4 6 -9 -3 -5 1 -12 10 -15 8
-3 12 -10 9 -16 -3 -5 -1 -10 5 -10 6 0 8 -4 5 -10 -3 -5 -1 -10 5 -10 6 0 8
-4 5 -10 -3 -5 -1 -10 5 -10 6 0 9 -4 6 -9 -3 -5 1 -12 10 -15 8 -3 12 -10 9
-16 -3 -5 -1 -10 5 -10 6 0 8 -4 5 -10 -3 -5 -1 -10 5 -10 6 0 9 -4 6 -9 -3
-5 1 -12 10 -15 8 -3 12 -10 9 -16 -3 -5 -1 -10 5 -10 6 0 9 -4 6 -9 -3 -5 1
-12 10 -15 8 -3 12 -10 9 -16 -3 -5 -1 -10 5 -10 6 0 9 -4 6 -9 -3 -5 1 -12
10 -15 8 -3 12 -10 9 -16 -3 -5 -1 -10 5 -10 6 0 9 -4 6 -9 -3 -5 1 -12 10
-15 8 -3 12 -10 9 -16 -3 -5 -1 -10 4 -10 6 0 11 -7 11 -15 0 -8 5 -15 11 -15
5 0 8 -4 5 -9 -3 -5 1 -12 10 -15 8 -3 13 -10 10 -15 -3 -5 1 -12 10 -15 8 -3
12 -10 9 -16 -3 -5 -1 -10 4 -10 6 0 11 -7 11 -15 0 -8 5 -15 11 -15 5 0 8 -4
5 -9 -3 -5 1 -12 10 -15 8 -3 13 -10 10 -15 -3 -5 1 -12 10 -15 8 -3 13 -10
10 -15 -3 -5 1 -12 10 -15 8 -3 13 -10 10 -15 -3 -5 1 -12 10 -15 8 -3 13 -10
10 -15 -3 -5 1 -11 9 -15 8 -3 15 -12 15 -20 0 -7 7 -17 16 -20 8 -3 13 -10
10 -15 -3 -5 1 -12 10 -15 8 -3 13 -10 10 -15 -3 -5 1 -11 9 -15 8 -3 15 -12
15 -20 0 -7 7 -17 16 -20 9 -4 14 -9 11 -12 -3 -4 4 -15 16 -25 12 -10 18 -18
13 -19 -4 0 2 -9 15 -20 13 -10 20 -19 15 -20 -4 0 2 -9 15 -20 13 -10 20 -19
15 -20 -4 0 2 -9 15 -20 13 -10 20 -19 14 -20 -5 0 1 -7 13 -16 12 -8 22 -21
22 -27 0 -7 9 -18 21 -25 12 -7 18 -16 15 -19 -3 -3 6 -14 19 -25 14 -11 25
-25 25 -31 0 -7 9 -18 20 -25 11 -7 20 -17 20 -23 0 -6 11 -20 25 -31 14 -11
25 -24 25 -29 0 -6 14 -22 30 -36 17 -13 30 -28 30 -33 0 -4 15 -24 33 -42 17
-19 54 -59 81 -89 132 -144 519 -525 613 -602 23 -19 39 -37 36 -41 -4 -3 -1
-6 6 -6 17 0 72 -46 64 -54 -4 -3 -1 -6 6 -6 18 0 62 -36 54 -44 -3 -3 1 -6
10 -6 9 0 22 -9 29 -20 7 -11 18 -20 25 -20 6 0 18 -8 25 -17 7 -10 25 -24 40
-32 15 -8 25 -18 22 -23 -3 -4 2 -8 11 -8 8 0 18 -7 21 -15 4 -8 12 -15 20
-15 7 0 17 -6 21 -13 4 -6 20 -18 35 -26 15 -8 25 -18 22 -23 -3 -4 2 -8 10
-8 9 0 16 -4 16 -10 0 -5 7 -10 15 -10 9 0 18 -6 21 -14 3 -8 17 -17 30 -20
14 -4 22 -11 19 -16 -3 -6 1 -10 9 -10 9 0 16 -4 16 -9 0 -5 11 -12 25 -15 14
-4 23 -11 20 -16 -3 -6 3 -10 15 -10 12 0 18 -4 15 -10 -3 -5 1 -10 9 -10 9 0
16 -4 16 -10 0 -5 7 -10 15 -10 8 0 15 -4 15 -10 0 -5 7 -10 15 -10 8 0 15 -4
15 -10 0 -5 7 -10 15 -10 8 0 15 -4 15 -10 0 -5 7 -10 15 -10 8 0 15 -4 15
-10 0 -5 7 -10 15 -10 8 0 15 -4 15 -10 0 -5 9 -10 21 -10 11 0 17 -4 14 -10
-3 -5 3 -10 15 -10 12 0 18 -4 15 -10 -3 -5 6 -12 20 -16 14 -3 25 -10 25 -15
0 -5 9 -9 21 -9 11 0 17 -5 14 -10 -4 -6 7 -13 24 -16 17 -4 28 -10 25 -15 -3
-5 8 -12 25 -15 17 -4 28 -10 25 -15 -2 -5 8 -11 23 -15 15 -4 36 -15 46 -25
10 -11 27 -19 38 -19 11 0 18 -4 15 -9 -5 -8 22 -22 72 -36 12 -4 20 -10 17
-14 -4 -8 47 -33 93 -46 12 -4 20 -11 17 -16 -3 -5 1 -6 9 -3 8 3 24 -4 35
-15 24 -24 157 -93 186 -96 35 -4 36 -5 30 -15 -4 -6 1 -7 11 -3 12 4 15 3 10
-5 -5 -8 -1 -10 10 -5 12 4 15 3 10 -5 -5 -8 -2 -10 8 -6 9 3 16 2 16 -4 0
-12 60 -38 79 -34 7 2 10 -1 6 -7 -3 -7 0 -8 9 -5 9 3 16 1 16 -4 0 -12 38
-27 59 -23 8 1 10 -2 5 -10 -4 -8 -3 -10 5 -5 6 4 18 0 26 -8 9 -8 22 -13 30
-10 8 4 15 2 15 -3 0 -6 12 -15 26 -21 14 -7 23 -8 19 -2 -10 16 0 12 25 -10
12 -11 27 -17 32 -14 6 4 14 1 18 -5 4 -7 21 -14 39 -16 17 -2 39 -11 47 -20
9 -8 20 -12 26 -9 6 4 14 1 18 -5 4 -7 22 -14 40 -16 18 -3 51 -14 74 -26 22
-12 50 -22 61 -24 33 -3 190 -57 196 -67 3 -5 12 -8 20 -7 20 4 79 -11 79 -20
0 -5 21 -11 46 -14 26 -2 50 -10 54 -16 3 -7 14 -9 23 -5 9 3 17 1 17 -4 0 -6
14 -10 31 -10 17 1 34 -4 38 -11 4 -6 15 -9 24 -5 10 3 17 1 17 -6 0 -7 8 -9
20 -5 12 4 20 2 20 -5 0 -7 8 -9 20 -5 12 4 20 2 20 -5 0 -7 8 -9 20 -5 12 4
20 2 20 -5 0 -7 8 -9 20 -5 12 4 20 2 20 -5 0 -7 8 -9 20 -5 12 4 20 2 20 -5
0 -6 10 -8 24 -4 13 3 27 1 30 -5 4 -5 13 -8 20 -5 8 3 17 0 21 -6 4 -6 15 -8
26 -5 11 4 19 2 19 -5 0 -6 10 -8 24 -4 13 3 27 1 30 -5 4 -5 13 -8 21 -5 8 3
20 2 27 -2 11 -7 37 -12 78 -15 8 0 22 -3 30 -6 8 -3 24 -7 35 -9 11 -1 34 -5
50 -8 83 -14 151 -24 200 -31 204 -26 300 -36 485 -50 99 -7 924 -8 1020 0
247 18 424 37 570 61 19 3 49 7 65 10 17 2 46 7 65 10 19 3 44 7 55 8 11 2 27
6 35 9 8 3 22 6 30 6 8 0 29 3 45 7 17 3 39 7 51 8 11 1 25 6 32 10 7 4 21 4
32 1 12 -4 20 -2 20 5 0 7 8 9 19 5 11 -3 22 -1 26 5 4 6 15 8 26 5 11 -4 19
-2 19 5 0 7 8 9 20 5 12 -4 20 -2 20 5 0 8 9 10 25 6 15 -4 25 -2 25 4 0 7 8
9 20 5 12 -4 20 -2 20 5 0 7 8 9 20 5 12 -4 20 -2 20 5 0 7 8 9 20 5 12 -4 20
-2 20 5 0 7 8 9 20 5 12 -4 20 -2 20 5 0 7 7 9 17 6 9 -4 20 -2 23 5 4 6 20
12 36 12 16 1 32 6 35 11 4 5 20 8 35 8 16 0 32 5 36 11 3 5 20 10 37 9 17 0
31 3 31 7 0 10 70 31 104 31 14 0 26 4 26 8 0 9 99 43 135 47 11 2 39 12 61
24 23 12 56 23 74 26 18 2 36 9 40 15 3 6 21 12 40 15 18 2 36 9 40 15 4 7 19
13 33 13 14 1 23 6 19 11 -3 5 2 7 11 3 10 -3 17 -2 17 2 0 5 7 12 16 15 8 3
12 2 9 -4 -4 -6 5 -5 19 2 14 6 26 15 26 21 0 5 7 7 15 3 8 -3 21 1 29 10 8 8
19 13 23 12 15 -4 53 13 53 24 0 5 7 7 16 4 10 -4 13 -2 8 6 -5 8 -2 9 9 5 9
-3 23 1 32 9 8 8 20 12 26 8 8 -4 9 -3 5 4 -4 7 -1 13 6 14 7 0 18 2 23 2 23
3 75 29 75 38 0 6 7 7 16 4 10 -4 13 -2 8 6 -5 8 -2 9 10 5 11 -5 15 -3 10 5
-5 8 -2 9 10 5 11 -5 15 -3 10 5 -5 8 -2 9 10 5 11 -5 15 -3 10 5 -5 8 -2 9
10 5 10 -4 15 -3 11 3 -3 6 0 11 7 12 7 0 18 2 23 3 6 2 15 3 21 4 6 0 24 13
39 27 15 14 34 23 42 20 9 -4 11 -2 7 6 -5 8 -2 9 10 5 11 -5 15 -3 10 5 -5 8
-2 9 10 5 9 -4 14 -3 11 2 -3 5 5 12 17 16 46 13 97 38 93 46 -3 4 5 10 17 14
49 14 78 28 73 36 -3 4 13 13 35 19 22 6 38 15 35 20 -3 5 7 13 22 16 15 4 33
13 38 19 6 7 23 16 38 19 15 4 25 11 22 16 -3 6 3 10 14 10 12 0 21 4 21 9 0
5 11 12 25 15 14 4 23 11 20 16 -3 6 3 10 14 10 12 0 21 4 21 9 0 5 11 12 25
15 14 4 23 11 20 16 -3 6 3 10 15 10 12 0 18 5 15 10 -3 6 3 10 15 10 12 0 18
5 15 10 -3 6 3 10 15 10 12 0 18 4 15 10 -3 5 3 10 15 10 12 0 18 5 15 10 -3
5 3 10 15 10 12 0 18 5 15 10 -3 6 3 10 15 10 12 0 18 5 15 10 -3 6 3 10 15
10 12 0 18 4 15 10 -3 5 6 12 20 16 14 3 25 10 25 15 0 5 7 9 16 9 8 0 12 4 9
10 -3 5 6 12 20 16 14 3 25 10 25 15 0 5 7 9 16 9 8 0 12 4 9 10 -3 5 5 12 19
16 13 3 27 12 30 20 3 8 12 14 20 14 7 0 16 7 20 15 3 8 12 15 20 15 7 0 16 7
20 15 3 8 13 15 21 15 9 0 14 4 11 8 -3 5 7 15 22 23 15 8 31 20 35 26 4 7 15
13 24 13 9 0 13 3 10 6 -7 7 35 44 50 44 4 0 14 9 21 20 7 11 20 20 29 20 9 0
13 3 10 6 -8 8 36 44 54 44 7 0 10 3 6 6 -8 8 47 54 64 54 7 0 10 3 6 6 -3 4
13 22 36 41 115 95 600 575 642 636 6 8 63 77 129 153 871 1021 1458 2351
1636 3714 70 534 79 1160 24 1690 -66 642 -216 1269 -447 1870 -31 80 -57 152
-59 160 -2 8 -6 17 -10 20 -12 9 -47 108 -41 114 4 3 1 6 -6 6 -7 0 -9 5 -6
10 3 6 1 10 -5 10 -6 0 -8 5 -5 10 3 6 1 10 -5 10 -7 0 -10 7 -6 15 3 8 1 15
-5 15 -6 0 -7 5 -4 10 3 6 1 10 -5 10 -6 0 -8 5 -5 10 3 6 1 10 -5 10 -6 0 -8
5 -5 10 3 6 1 10 -5 10 -6 0 -8 5 -5 10 3 6 1 10 -5 10 -7 0 -10 7 -6 15 3 8
1 15 -5 15 -6 0 -7 5 -4 10 3 6 1 10 -5 10 -6 0 -8 5 -5 10 3 6 1 10 -5 10 -6
0 -8 5 -5 10 3 6 1 10 -5 10 -6 0 -8 5 -5 10 3 6 1 10 -5 10 -6 0 -8 5 -5 10
3 6 1 10 -5 10 -6 0 -8 5 -5 10 3 6 1 10 -5 10 -6 0 -8 5 -5 10 3 6 1 10 -5
10 -6 0 -8 5 -5 10 3 6 1 10 -5 10 -6 0 -8 5 -5 10 3 6 1 10 -5 10 -6 0 -8 5
-5 10 3 6 1 10 -5 10 -6 0 -8 5 -5 10 3 6 1 10 -5 10 -6 0 -8 5 -5 10 3 6 1
10 -5 10 -6 0 -8 5 -5 10 3 6 1 10 -5 10 -6 0 -8 5 -5 10 3 6 1 10 -5 10 -6 0
-9 4 -6 9 3 5 -1 12 -10 15 -8 3 -12 10 -9 16 3 5 1 10 -5 10 -6 0 -8 5 -5 10
3 6 1 10 -5 10 -6 0 -8 5 -5 10 3 6 1 10 -5 10 -6 0 -8 5 -5 10 3 6 1 10 -5
10 -6 0 -9 4 -6 9 3 5 -1 12 -10 15 -8 3 -12 10 -9 16 3 5 1 10 -5 10 -6 0 -8
5 -5 10 3 6 1 10 -5 10 -6 0 -8 5 -5 10 3 6 1 10 -5 10 -6 0 -9 4 -6 9 3 5 -1
12 -10 15 -8 3 -12 10 -9 16 3 5 1 10 -5 10 -6 0 -9 4 -6 9 3 5 -1 12 -10 15
-8 3 -12 10 -9 16 3 5 1 10 -5 10 -6 0 -8 5 -5 10 3 6 1 10 -5 10 -6 0 -9 4
-6 9 3 5 -1 12 -10 15 -8 3 -12 10 -9 16 3 5 1 10 -5 10 -6 0 -9 4 -6 9 3 5
-1 12 -10 15 -8 3 -13 10 -10 15 3 5 -1 12 -10 15 -8 3 -12 10 -9 16 3 5 1 10
-5 10 -6 0 -9 4 -6 9 3 5 -1 12 -10 15 -8 3 -13 10 -10 15 3 5 -1 12 -10 15
-8 3 -12 10 -9 16 3 5 1 10 -4 10 -6 0 -11 7 -11 15 0 8 -5 15 -11 15 -5 0 -8
4 -5 9 3 5 -1 12 -10 15 -8 3 -13 10 -10 15 3 5 -1 12 -10 15 -8 3 -13 10 -10
15 3 5 -1 12 -10 15 -8 3 -13 10 -10 15 3 5 -1 12 -10 15 -8 3 -13 10 -10 15
3 5 -1 12 -10 15 -8 3 -13 10 -10 15 3 5 -1 11 -9 15 -8 3 -15 12 -15 20 0 7
-7 17 -16 20 -8 3 -13 10 -10 15 3 5 -1 12 -10 15 -9 4 -14 9 -10 13 3 3 -3
13 -14 20 -11 8 -18 18 -15 23 3 4 -2 10 -10 14 -8 3 -15 12 -15 20 0 7 -7 17
-16 20 -9 4 -14 9 -11 12 3 4 -4 15 -16 25 -12 10 -18 18 -13 19 4 0 -2 9 -15
20 -13 10 -20 19 -14 20 5 0 -1 7 -13 16 -12 8 -22 21 -22 27 0 7 -9 18 -21
25 -12 7 -18 16 -15 19 3 4 -3 12 -14 20 -11 8 -20 19 -20 25 0 5 -11 19 -26
30 -14 11 -23 23 -20 25 3 3 -6 14 -19 25 -14 11 -25 24 -25 30 0 5 -11 19
-25 30 -14 11 -25 23 -25 28 0 4 -15 24 -32 42 -18 19 -53 57 -77 84 -24 27
-67 74 -96 104 -28 30 -58 64 -66 75 -8 11 -73 77 -145 148 -72 70 -129 127
-126 127 3 0 -8 10 -24 22 -53 40 -122 107 -116 112 3 3 1 6 -5 6 -16 0 -93
67 -86 74 4 3 -1 6 -9 6 -9 0 -28 14 -41 30 -14 17 -30 30 -36 30 -5 0 -18 11
-29 25 -11 14 -25 25 -30 25 -6 0 -19 11 -30 25 -11 14 -25 25 -31 25 -6 0
-16 9 -23 20 -7 11 -18 20 -25 20 -6 0 -18 8 -25 18 -7 9 -25 23 -40 31 -15 8
-25 17 -23 21 3 5 -7 11 -20 14 -14 4 -23 11 -20 16 3 6 -1 10 -10 10 -8 0
-18 7 -21 15 -4 8 -13 15 -20 15 -8 0 -17 6 -20 14 -3 8 -17 17 -30 20 -14 4
-22 11 -19 16 3 6 -1 10 -9 10 -9 0 -16 4 -16 9 0 5 -11 12 -25 15 -14 4 -23
11 -20 16 3 6 -1 10 -9 10 -9 0 -16 4 -16 9 0 5 -11 12 -25 15 -14 4 -23 11
-20 16 3 6 -3 10 -15 10 -12 0 -18 5 -15 10 3 6 -1 10 -9 10 -9 0 -16 5 -16
10 0 6 -7 10 -15 10 -8 0 -15 5 -15 10 0 6 -7 10 -15 10 -8 0 -15 5 -15 10 0
6 -7 10 -15 10 -8 0 -15 5 -15 10 0 6 -7 10 -15 10 -8 0 -15 5 -15 10 0 6 -9
10 -21 10 -11 0 -17 5 -14 10 3 6 -3 10 -15 10 -12 0 -18 4 -15 10 3 5 -6 12
-20 16 -14 3 -25 10 -25 15 0 5 -9 9 -21 9 -11 0 -17 4 -14 10 3 5 -6 12 -20
16 -14 3 -25 10 -25 14 0 5 -10 12 -22 16 -12 3 -28 13 -36 20 -7 8 -22 14
-33 14 -11 0 -17 5 -14 10 4 6 -8 13 -25 17 -18 3 -34 12 -37 19 -3 8 -23 19
-44 24 -22 6 -37 15 -34 19 2 5 -9 14 -25 20 -17 6 -44 16 -60 22 -17 7 -34
17 -38 24 -9 17 -308 166 -316 158 -3 -4 -6 -1 -6 5 0 6 -7 9 -17 5 -12 -5
-14 -3 -8 7 6 9 4 11 -4 5 -8 -4 -25 2 -43 15 -16 12 -41 23 -54 25 -14 1 -33
10 -43 19 -9 9 -26 16 -37 16 -11 0 -25 5 -32 12 -6 6 -20 13 -29 14 -9 2 -29
8 -43 15 -24 11 -43 19 -100 42 -14 5 -33 13 -42 18 -10 5 -23 9 -29 9 -6 0
-25 6 -42 14 -58 24 -141 54 -257 91 -63 21 -119 41 -124 46 -6 5 -21 9 -35 9
-15 0 -39 7 -55 15 -15 8 -36 15 -46 15 -11 0 -31 5 -47 12 -15 6 -32 10 -37
9 -4 -1 -14 3 -20 9 -7 5 -15 7 -18 5 -3 -3 -18 0 -34 6 -16 7 -34 11 -41 10
-6 -1 -14 3 -18 8 -3 6 -12 8 -19 5 -8 -3 -17 -1 -20 5 -4 6 -13 8 -20 5 -8
-3 -17 -1 -20 5 -4 6 -13 8 -20 5 -8 -3 -17 -1 -20 5 -4 6 -13 8 -20 5 -8 -3
-17 -1 -20 4 -3 6 -15 8 -25 5 -10 -3 -22 0 -25 6 -4 5 -13 8 -20 5 -8 -3 -17
-1 -20 5 -4 6 -13 8 -21 5 -8 -3 -20 -2 -27 2 -7 4 -19 9 -28 10 -15 3 -46 9
-98 19 -15 3 -34 6 -42 6 -8 0 -22 3 -30 6 -8 3 -24 7 -35 9 -11 1 -33 5 -50
8 -16 2 -45 7 -63 10 -17 3 -47 8 -65 11 -62 10 -134 20 -217 30 -25 3 -61 7
-80 10 -60 7 -253 22 -375 29 -160 9 -590 19 -595 13z m-90 -3172 c0 -1460 4
-2565 9 -2565 5 0 47 31 95 70 281 226 667 435 1048 565 1082 372 2299 217
3243 -410 262 -175 578 -462 769 -700 354 -442 591 -954 685 -1485 51 -281 50
-271 48 -1890 l-2 -1515 -587 -3 -588 -2 0 1417 c-1 780 -3 1461 -6 1513 -36
709 -403 1344 -1009 1743 -313 206 -698 345 -1074 388 -159 18 -546 7 -691
-20 -489 -89 -911 -299 -1253 -622 -360 -339 -597 -789 -667 -1268 -19 -127
-20 -189 -20 -943 l0 -808 -595 0 -595 0 0 4550 0 4550 595 0 595 0 0 -2565z
m-1892 -2911 l-3 -567 -136 -27 c-550 -110 -1021 -389 -1377 -815 -249 -297
-418 -680 -477 -1080 -22 -146 -22 -422 0 -575 125 -881 785 -1610 1680 -1855
243 -66 348 -79 650 -80 174 0 300 5 355 13 606 93 1131 381 1502 822 269 319
446 727 498 1140 15 123 12 407 -5 530 -8 58 -29 163 -46 235 -23 92 -28 130
-20 133 6 2 24 14 39 26 15 12 40 31 56 41 16 11 43 30 60 43 17 12 47 33 66
47 19 14 51 36 70 50 19 14 51 36 70 50 19 14 51 36 70 50 19 14 51 36 70 50
19 14 51 36 70 50 19 14 51 36 70 50 19 14 51 36 70 50 19 14 51 36 70 50 19
14 49 35 66 47 68 49 125 88 128 88 2 0 31 -69 64 -152 102 -255 164 -496 209
-804 15 -108 17 -286 20 -1936 l4 -1818 -596 0 -595 0 -2 427 -3 427 -36 -32
c-71 -62 -290 -218 -396 -282 -481 -289 -980 -455 -1548 -515 -182 -19 -558
-19 -740 0 -1003 106 -1876 578 -2474 1337 -872 1107 -935 2627 -157 3791 135
203 248 339 431 522 176 177 173 174 330 296 496 384 1069 625 1710 719 66 10
135 18 153 19 l32 1 -2 -566z"/>
<path d="M11105 15070 c-3 -5 0 -7 7 -5 8 3 29 -6 47 -19 19 -14 38 -23 44
-19 6 3 -10 16 -34 29 -51 26 -56 28 -64 14z"/>
<path d="M4598 15053 c-10 -2 -18 -9 -18 -14 0 -6 8 -5 20 1 11 6 20 13 20 15
0 3 -1 4 -2 4 -2 -1 -11 -3 -20 -6z"/>
<path d="M11235 15010 c-4 -6 1 -7 11 -3 13 5 15 3 9 -7 -6 -9 -4 -11 4 -5 8
4 24 -1 40 -13 39 -28 187 -102 206 -102 9 0 13 -4 10 -10 -4 -6 1 -7 11 -3
12 4 15 3 10 -5 -5 -8 -1 -10 10 -5 13 5 15 3 9 -7 -5 -9 -4 -11 3 -6 7 4 12
9 12 12 0 4 -316 164 -324 164 -3 0 -8 -4 -11 -10z"/>
<path d="M4448 14979 c-21 -11 -38 -22 -38 -24 0 -3 18 4 40 15 22 11 40 23
40 25 0 7 0 7 -42 -16z"/>
<path d="M4260 14885 c-25 -13 -40 -24 -35 -24 6 0 30 11 55 24 25 13 41 24
35 24 -5 0 -30 -11 -55 -24z"/>
<path d="M11574 14838 c-4 -7 -4 -10 1 -6 4 4 14 0 22 -8 9 -8 28 -18 44 -21
16 -3 26 -9 23 -14 -3 -5 3 -6 12 -2 13 5 15 3 9 -8 -4 -8 -5 -11 0 -7 4 4 14
1 22 -7 8 -8 23 -15 34 -15 11 0 17 -4 14 -10 -4 -6 1 -7 11 -3 12 4 15 3 10
-5 -5 -8 3 -14 23 -18 19 -4 28 -11 24 -18 -3 -6 -3 -8 2 -4 4 4 14 1 22 -7 8
-8 23 -15 34 -15 11 0 17 -5 14 -10 -4 -6 7 -13 24 -16 17 -4 28 -10 25 -15
-3 -5 8 -12 25 -15 17 -4 28 -10 25 -15 -2 -5 7 -11 21 -15 14 -3 25 -10 25
-15 0 -5 9 -9 21 -9 11 0 17 -4 14 -10 -3 -5 3 -10 15 -10 13 0 19 -4 14 -12
-4 -7 -3 -8 4 -4 7 4 12 2 12 -3 0 -6 7 -11 15 -11 8 0 15 -4 15 -10 0 -5 9
-10 21 -10 11 0 17 -4 14 -10 -3 -5 3 -10 15 -10 12 0 18 -4 15 -10 -3 -5 3
-10 15 -10 12 0 18 -4 15 -10 -3 -5 3 -10 15 -10 12 0 18 -4 15 -10 -3 -5 3
-10 15 -10 12 0 18 -4 15 -10 -3 -5 1 -10 9 -10 9 0 16 -4 16 -10 0 -5 7 -10
15 -10 8 0 15 -4 15 -9 0 -5 9 -11 20 -14 11 -3 18 -1 15 4 -9 14 -311 211
-470 306 -239 143 -342 196 -351 181z"/>
<path d="M4110 14805 c-14 -8 -20 -14 -15 -14 6 0 21 6 35 14 14 8 21 14 15
14 -5 0 -21 -6 -35 -14z"/>
<path d="M4010 14750 c-8 -5 -10 -10 -5 -10 6 0 17 5 25 10 8 5 11 10 5 10 -5
0 -17 -5 -25 -10z"/>
<path d="M3940 14710 c-8 -5 -10 -10 -5 -10 6 0 17 5 25 10 8 5 11 10 5 10 -5
0 -17 -5 -25 -10z"/>
<path d="M12405 14330 c-3 -5 1 -10 9 -10 9 0 16 -4 16 -9 0 -5 9 -11 20 -14
27 -7 25 -2 -9 23 -18 12 -32 16 -36 10z"/>
<path d="M12475 14280 c-3 -5 1 -10 9 -10 9 0 16 -4 16 -9 0 -5 9 -11 20 -14
27 -7 25 -2 -9 23 -18 12 -32 16 -36 10z"/>
<path d="M12546 14231 c-3 -5 6 -12 19 -15 14 -4 23 -10 20 -15 -2 -5 7 -12
20 -15 14 -4 23 -10 21 -15 -3 -5 3 -11 15 -14 15 -4 18 -2 10 7 -21 26 -100
76 -105 67z"/>
<path d="M12665 14140 c-3 -6 1 -10 9 -10 8 0 19 -6 23 -12 8 -12 53 -42 53
-35 0 12 -80 65 -85 57z"/>
<path d="M12756 14072 c-2 -4 7 -13 21 -19 25 -12 25 -12 8 7 -20 22 -22 23
-29 12z"/>
<path d="M12806 14032 c-2 -4 7 -13 21 -19 25 -12 25 -12 8 7 -20 22 -22 23
-29 12z"/>
<path d="M12855 13990 c-3 -5 1 -10 9 -10 9 0 21 -9 28 -20 7 -11 17 -20 22
-20 5 0 21 -10 34 -22 14 -13 22 -18 19 -11 -15 25 -106 93 -112 83z"/>
<path d="M12975 13890 c-3 -5 -1 -10 6 -10 7 0 24 -10 38 -22 21 -19 20 -17
-3 10 -33 36 -33 36 -41 22z"/>
<path d="M13050 13823 c8 -3 29 -17 45 -32 l30 -26 -29 33 c-17 17 -37 32 -45
31 -14 0 -14 -1 -1 -6z"/>
<path d="M13125 13760 c-3 -5 -1 -10 5 -10 6 0 32 -19 58 -42 l47 -42 -50 52
c-55 58 -52 56 -60 42z"/>
<path d="M13237 13664 c-3 -4 10 -19 31 -34 37 -28 315 -309 426 -430 32 -36
74 -81 92 -100 19 -19 34 -39 34 -43 0 -5 14 -20 30 -34 17 -13 30 -29 30 -35
0 -6 11 -19 25 -30 14 -11 25 -24 25 -30 0 -5 11 -19 25 -30 14 -11 25 -25 25
-31 0 -7 9 -18 20 -25 11 -7 20 -18 20 -25 0 -7 9 -18 20 -25 11 -7 20 -18 20
-25 0 -7 9 -18 21 -25 12 -7 18 -16 15 -19 -3 -4 3 -12 14 -20 11 -8 20 -20
20 -27 0 -8 7 -16 15 -20 8 -3 15 -12 15 -20 0 -7 7 -16 15 -20 8 -3 15 -12
15 -20 0 -7 7 -16 15 -20 8 -3 15 -12 15 -20 0 -7 7 -17 16 -20 9 -4 14 -9 10
-13 -3 -3 3 -13 14 -20 11 -8 18 -18 15 -23 -3 -4 2 -10 10 -14 8 -3 15 -12
15 -20 0 -7 7 -17 16 -20 8 -3 13 -10 10 -15 -3 -5 1 -12 10 -15 8 -3 13 -10
10 -15 -3 -5 1 -12 10 -15 8 -3 13 -10 10 -15 -3 -5 1 -11 9 -15 8 -3 15 -12
15 -21 0 -8 5 -15 10 -15 6 0 10 -7 10 -15 0 -8 5 -15 10 -15 6 0 10 -7 10
-15 0 -8 5 -15 10 -15 6 0 10 -7 10 -15 0 -8 5 -15 10 -15 6 0 10 -7 10 -15 0
-8 5 -15 11 -15 5 0 8 -4 5 -9 -3 -5 1 -12 10 -15 8 -3 13 -10 10 -15 -3 -5 1
-12 10 -15 8 -3 13 -10 10 -15 -3 -5 1 -12 10 -15 8 -3 12 -10 9 -16 -3 -5 -1
-10 5 -10 6 0 9 -4 6 -9 -3 -5 1 -12 10 -15 8 -3 13 -10 10 -15 -3 -5 1 -12
10 -15 8 -3 12 -10 9 -16 -3 -5 -1 -10 5 -10 6 0 9 -4 6 -9 -3 -5 1 -12 10
-15 8 -3 12 -10 9 -16 -3 -5 -1 -10 5 -10 6 0 9 -4 6 -9 -3 -5 1 -12 10 -15 8
-3 12 -10 9 -16 -3 -5 -1 -10 5 -10 6 0 9 -4 6 -9 -3 -5 1 -12 10 -15 8 -3 12
-10 9 -16 -3 -5 -1 -10 5 -10 6 0 8 -4 5 -10 -3 -5 -1 -10 5 -10 6 0 9 -4 6
-9 -3 -5 1 -12 10 -15 8 -3 12 -10 9 -16 -3 -5 -1 -10 5 -10 6 0 8 -4 5 -10
-3 -5 -1 -10 5 -10 6 0 9 -4 6 -9 -3 -5 1 -12 10 -15 8 -3 12 -10 9 -16 -3 -5
-1 -10 5 -10 6 0 8 -4 5 -10 -3 -5 -1 -10 5 -10 6 0 8 -4 5 -10 -3 -5 -1 -10
5 -10 6 0 8 -4 5 -10 -3 -5 -1 -10 5 -10 6 0 9 -4 6 -9 -3 -5 1 -12 10 -15 8
-3 12 -10 9 -16 -3 -5 -1 -10 5 -10 6 0 8 -4 5 -10 -3 -5 -1 -10 5 -10 6 0 8
-4 5 -10 -3 -5 -1 -10 5 -10 6 0 8 -4 5 -10 -3 -5 -1 -10 5 -10 6 0 8 -4 5
-10 -3 -5 -1 -10 5 -10 6 0 8 -4 5 -10 -3 -5 -1 -10 5 -10 6 0 8 -4 5 -10 -3
-5 -1 -10 5 -10 6 0 8 -4 5 -10 -3 -5 -1 -10 5 -10 6 0 8 -4 5 -10 -3 -5 -1
-10 5 -10 6 0 8 -4 5 -10 -3 -5 -1 -10 5 -10 6 0 8 -4 5 -10 -3 -5 -1 -10 5
-10 6 0 8 -4 5 -10 -3 -5 -1 -10 5 -10 6 0 8 -4 5 -10 -3 -5 -1 -10 5 -10 6 0
8 -4 5 -10 -3 -5 -1 -10 5 -10 6 0 8 -4 5 -10 -3 -5 -1 -10 5 -10 6 0 8 -4 5
-10 -3 -5 -1 -10 5 -10 6 0 8 -4 5 -10 -3 -5 -1 -10 5 -10 6 0 8 -4 5 -10 -3
-5 -1 -10 5 -10 6 0 8 -4 5 -10 -3 -5 -1 -10 5 -10 6 0 8 -4 5 -10 -3 -5 -1
-10 5 -10 6 0 8 -4 5 -10 -3 -5 -1 -10 5 -10 7 0 10 -7 6 -15 -3 -8 -1 -15 5
-15 6 0 7 -4 4 -10 -3 -5 -1 -10 5 -10 6 0 8 -4 5 -10 -3 -5 -1 -10 5 -10 6 0
8 -4 5 -10 -3 -5 -1 -10 5 -10 6 0 8 -4 5 -10 -3 -5 -1 -10 5 -10 7 0 10 -7 6
-15 -3 -8 -1 -15 5 -15 6 0 7 -4 4 -10 -3 -5 -1 -10 5 -10 6 0 8 -4 5 -10 -3
-5 -1 -10 5 -10 7 0 10 -7 6 -15 -3 -8 -1 -15 5 -15 6 0 7 -4 4 -10 -3 -5 -1
-10 5 -10 6 0 8 -4 5 -10 -3 -5 -1 -10 5 -10 7 0 10 -7 6 -15 -3 -8 -1 -15 5
-15 6 0 7 -4 4 -10 -3 -5 -2 -10 3 -10 5 0 37 -72 71 -160 256 -666 413 -1326
491 -2053 10 -94 18 -154 19 -132 0 22 -8 121 -19 220 -133 1195 -531 2325
-1178 3345 -188 297 -449 647 -680 915 -205 238 -611 653 -625 639z"/>
<path d="M15743 8430 c0 -41 2 -58 4 -37 2 20 2 54 0 75 -2 20 -4 3 -4 -38z"/>
<path d="M15754 8210 c0 -80 2 -112 3 -72 2 39 2 105 0 145 -1 39 -3 7 -3 -73z"/>
<path d="M15754 7545 c0 -66 1 -92 3 -57 2 34 2 88 0 120 -2 31 -3 3 -3 -63z"/>
<path d="M15743 7340 c0 -30 2 -43 4 -27 2 15 2 39 0 55 -2 15 -4 2 -4 -28z"/>
<path d="M15733 7210 c0 -25 2 -35 4 -22 2 12 2 32 0 45 -2 12 -4 2 -4 -23z"/>
<path d="M15723 7095 c0 -22 2 -30 4 -17 2 12 2 30 0 40 -3 9 -5 -1 -4 -23z"/>
<path d="M15712 7005 c0 -16 2 -22 5 -12 2 9 2 23 0 30 -3 6 -5 -1 -5 -18z"/>
<path d="M15702 6910 c0 -19 2 -27 5 -17 2 9 2 25 0 35 -3 9 -5 1 -5 -18z"/>
<path d="M15692 6835 c0 -16 2 -22 5 -12 2 9 2 23 0 30 -3 6 -5 -1 -5 -18z"/>
<path d="M15682 6765 c0 -16 2 -22 5 -12 2 9 2 23 0 30 -3 6 -5 -1 -5 -18z"/>
<path d="M15672 6695 c0 -16 2 -22 5 -12 2 9 2 23 0 30 -3 6 -5 -1 -5 -18z"/>
<path d="M15662 6630 c0 -14 2 -19 5 -12 2 6 2 18 0 25 -3 6 -5 1 -5 -13z"/>
<path d="M15652 6570 c0 -14 2 -19 5 -12 2 6 2 18 0 25 -3 6 -5 1 -5 -13z"/>
<path d="M15642 6510 c0 -14 2 -19 5 -12 2 6 2 18 0 25 -3 6 -5 1 -5 -13z"/>
<path d="M15631 6454 c0 -11 3 -14 6 -6 3 7 2 16 -1 19 -3 4 -6 -2 -5 -13z"/>
<path d="M15621 6404 c0 -11 3 -14 6 -6 3 7 2 16 -1 19 -3 4 -6 -2 -5 -13z"/>
<path d="M15611 6354 c0 -11 3 -14 6 -6 3 7 2 16 -1 19 -3 4 -6 -2 -5 -13z"/>
<path d="M15602 6300 c0 -14 2 -19 5 -12 2 6 2 18 0 25 -3 6 -5 1 -5 -13z"/>
<path d="M15591 6254 c0 -11 3 -14 6 -6 3 7 2 16 -1 19 -3 4 -6 -2 -5 -13z"/>
<path d="M7698 3 c23 -2 59 -2 80 0 20 2 1 4 -43 4 -44 0 -61 -2 -37 -4z"/>
<path d="M7988 3 c23 -2 59 -2 80 0 20 2 1 4 -43 4 -44 0 -61 -2 -37 -4z"/>
</g>
</svg>
